#N canvas 260 105 487 501 10;
#X obj 30 394 +~;
#X obj 30 174 +;
#X obj 73 174 f;
#X msg 30 150 1;
#X obj 57 227 sel 1;
#X msg 73 150 0;
#X obj 57 203 > 3;
#X obj 30 315 * 100;
#X obj 30 341 osc~ 220;
#X obj 30 459 dac~;
#X obj 165 22 loadbang;
#X msg 30 66 1;
#X obj 81 72 r Channel-A;
#X obj 57 251 r Channel-B;
#X obj 210 232 r Channel-C;
#X obj 210 316 line~;
#X msg 210 293 \$1 20;
#X obj 302 350 r Channel-D;
#X obj 210 367 *~ 0.3;
#X obj 30 366 *~ 0.4;
#X obj 30 422 *~ 0.2;
#X msg 243 126 0.3;
#X obj 30 124 metro 300;
#X obj 81 101 * 300;
#X obj 57 289 * 440;
#X msg 165 298 440;
#X msg 174 233 220;
#X obj 210 391 delwrite~ del 1000;
#X obj 210 269 * 600;
#X obj 159 72 hsl 128 15 0 1 0 0 empty empty empty -2 -8 0 10 -262144
-1 -1 8500 1;
#X obj 121 202 hsl 128 15 0 1 0 0 empty empty empty -2 -8 0 10 -262144
-1 -1 0 1;
#X obj 291 233 hsl 128 15 0 1 0 0 empty empty empty -2 -8 0 10 -262144
-1 -1 10400 1;
#X obj 304 324 hsl 128 15 0 1 0 0 empty empty empty -2 -8 0 10 -262144
-1 -1 0 1;
#X obj 210 342 vd~ del;
#X connect 0 0 20 0;
#X connect 1 0 2 0;
#X connect 1 0 6 0;
#X connect 1 0 7 0;
#X connect 2 0 1 1;
#X connect 3 0 1 0;
#X connect 4 0 5 0;
#X connect 5 0 2 0;
#X connect 6 0 4 0;
#X connect 7 0 8 0;
#X connect 8 0 19 0;
#X connect 10 0 11 0;
#X connect 10 0 21 0;
#X connect 10 0 25 0;
#X connect 10 0 26 0;
#X connect 11 0 22 0;
#X connect 11 0 23 0;
#X connect 12 0 23 0;
#X connect 13 0 24 0;
#X connect 14 0 28 0;
#X connect 15 0 33 0;
#X connect 16 0 15 0;
#X connect 17 0 18 1;
#X connect 18 0 27 0;
#X connect 19 0 0 0;
#X connect 19 0 27 0;
#X connect 20 0 9 0;
#X connect 20 0 9 1;
#X connect 21 0 18 1;
#X connect 22 0 3 0;
#X connect 23 0 22 1;
#X connect 24 0 7 1;
#X connect 25 0 7 1;
#X connect 26 0 16 0;
#X connect 28 0 16 0;
#X connect 29 0 23 0;
#X connect 30 0 24 0;
#X connect 31 0 28 0;
#X connect 32 0 18 1;
#X connect 33 0 0 1;
#X connect 33 0 18 0;
